#N canvas 0 23 691 432 12;
#X obj 50 163 sin;
#X floatatom 50 186 10 0 0 0 - - -;
#X floatatom 28 74 0 0 0 0 - - -;
#X obj 28 126 * 6.28319;
#X obj 28 100 / 360;
#X obj 92 247 pow 2;
#X floatatom 92 270 5 0 0 0 - - -;
#X floatatom 131 185 10 0 0 0 - - -;
#X obj 131 162 cos;
#X floatatom 134 69 0 0 0 0 - - -;
#X obj 134 121 * 6.28319;
#X obj 134 95 / 360;
#X obj 96 218 *;
#X text 87 76 yy;
#X obj 297 245 pow 2;
#X floatatom 297 268 5 0 0 0 - - -;
#X floatatom 336 183 10 0 0 0 - - -;
#X floatatom 339 67 0 0 0 0 - - -;
#X obj 339 119 * 6.28319;
#X obj 339 93 / 360;
#X obj 336 160 sin;
#X text 280 122 zz;
#X obj 515 148 sin;
#X floatatom 515 171 10 0 0 0 - - -;
#X floatatom 493 59 0 0 0 0 - - -;
#X obj 493 111 * 6.28319;
#X obj 493 85 / 360;
#X obj 557 232 pow 2;
#X floatatom 557 255 5 0 0 0 - - -;
#X floatatom 596 170 10 0 0 0 - - -;
#X obj 596 147 cos;
#X floatatom 599 54 0 0 0 0 - - -;
#X obj 599 106 * 6.28319;
#X obj 599 80 / 360;
#X obj 561 203 *;
#X text 552 61 xx;
#X obj 237 304 +;
#X obj 430 306 +;
#X text 386 65 elev;
#X floatatom 211 12 5 0 0 0 - - -;
#X floatatom 384 13 5 0 0 0 - - -;
#X obj 295 336 +;
#X floatatom 295 359 5 0 0 0 - - -;
#X obj 301 216 * 1;
#X text 420 370 cartesian test;
#X text 420 389 supposed to add to 1?;
#X connect 0 0 1 0;
#X connect 1 0 12 0;
#X connect 2 0 4 0;
#X connect 3 0 0 0;
#X connect 4 0 3 0;
#X connect 5 0 6 0;
#X connect 6 0 36 0;
#X connect 7 0 12 1;
#X connect 8 0 7 0;
#X connect 9 0 11 0;
#X connect 10 0 8 0;
#X connect 11 0 10 0;
#X connect 12 0 5 0;
#X connect 14 0 15 0;
#X connect 15 0 37 0;
#X connect 15 0 36 1;
#X connect 16 0 43 0;
#X connect 17 0 19 0;
#X connect 18 0 20 0;
#X connect 19 0 18 0;
#X connect 20 0 16 0;
#X connect 22 0 23 0;
#X connect 23 0 34 0;
#X connect 24 0 26 0;
#X connect 25 0 30 0;
#X connect 26 0 25 0;
#X connect 27 0 28 0;
#X connect 28 0 37 1;
#X connect 29 0 34 1;
#X connect 30 0 29 0;
#X connect 31 0 33 0;
#X connect 32 0 22 0;
#X connect 33 0 32 0;
#X connect 34 0 27 0;
#X connect 36 0 41 0;
#X connect 37 0 41 1;
#X connect 39 0 2 0;
#X connect 39 0 24 0;
#X connect 40 0 17 0;
#X connect 40 0 31 0;
#X connect 40 0 9 0;
#X connect 41 0 42 0;
#X connect 43 0 14 0;
