#N struct line-label float x float y float z symbol label;
#N canvas 26 74 1868 838 12;
#X floatatom 100 152 5 0 0 0 - - -;
#X obj 190 369 spectrum;
#X obj 81 461 dac~;
#X obj 32 228 meter;
#X obj 145 228 meter;
#X obj 256 228 meter;
#X obj 369 228 meter;
#X obj 485 228 meter;
#X obj 598 228 meter;
#X obj 709 228 meter;
#X obj 822 228 meter;
#X obj 931 228 meter;
#X obj 1044 228 meter;
#X obj 1155 228 meter;
#X obj 1265 229 meter;
#X obj 1381 229 meter;
#X obj 1494 229 meter;
#X obj 1605 229 meter;
#X obj 1718 229 meter;
#X floatatom 1662 142 5 0 0 0 - - -;
#X floatatom 70 776 0 0 0 0 - - -;
#X obj 70 688 cputime;
#X obj 70 568 loadbang;
#X obj 70 632 metro 1000;
#X obj 70 660 t b b;
#X obj 70 748 * 0.1;
#X obj 70 717 int;
#X text 62 802 CPU load in percent;
#X text 93 598 <= on/off;
#X obj 70 599 tgl 15 0 empty empty empty 17 7 0 10 -262144 -1 -1 1
1;
#X floatatom 872 160 5 0 0 0 - - -;
#X obj 850 46 vsl 15 128 0 127 0 0 empty empty empty 0 -9 0 10 -262144
-1 -1 7300 1;
#X obj 872 136 / 127;
#X msg 1662 119 0.5;
#X obj 104 190 pool_vox~ 45 0, f 220;
#X connect 0 0 34 0;
#X connect 19 0 34 2;
#X connect 21 0 26 0;
#X connect 22 0 29 0;
#X connect 23 0 24 0;
#X connect 24 0 21 0;
#X connect 24 1 21 1;
#X connect 25 0 20 0;
#X connect 26 0 25 0;
#X connect 29 0 23 0;
#X connect 30 0 34 1;
#X connect 31 0 32 0;
#X connect 32 0 30 0;
#X connect 33 0 19 0;
#X connect 34 0 2 0;
#X connect 34 0 3 0;
#X connect 34 0 1 0;
#X connect 34 1 4 0;
#X connect 34 2 5 0;
#X connect 34 3 6 0;
#X connect 34 4 7 0;
#X connect 34 5 8 0;
#X connect 34 6 9 0;
#X connect 34 7 10 0;
#X connect 34 8 11 0;
#X connect 34 9 12 0;
#X connect 34 10 13 0;
#X connect 34 11 14 0;
#X connect 34 12 15 0;
#X connect 34 13 16 0;
#X connect 34 14 17 0;
#X connect 34 15 18 0;
