#N canvas 58 44 980 685 12;
#X msg 401 4 \; pd dsp 1;
#X msg 401 42 \; pd dsp 0;
#X obj 127 540 foaAmbiPan~;
#X floatatom 163 294 5 0 0 0 - - -;
#X floatatom 201 493 5 0 0 0 - - -;
#X text 249 492 set elevation between -180 and 180;
#X obj 166 267 hsl 128 15 180 -180 0 0 empty empty azimuth -2 -8 0
10 -262144 -1 -1 6350 1;
#X text 211 294 set azimuth between 180 and -180;
#X obj 201 349 vsl 15 128 -180 180 0 0 empty empty elevation 0 -9 0
10 -262144 -1 -1 0 1;
#X text 8 4 test pd patch for my own first order ambisonic panning
external;
#X text 509 7 we only have two channels but if things are working correctly
we should be able to test certain behaviors;
#X obj 163 197 loadbang;
#X msg 163 224 0;
#X text 508 108 clearly this is doing something but I am not sure how
it works acoustically yet. this is why am doing it though \, to further
understand;
#X obj 129 86 noise~;
#X obj 129 146 *~;
#X obj 147 118 tgl 15 0 empty empty empty 17 7 0 10 -262144 -1 -1 0
1;
#X obj 200 590 dac~ 1 2;
#X text 509 65 the problem is I don't have a decoder yet...;
#X connect 3 0 2 1;
#X connect 4 0 2 2;
#X connect 6 0 3 0;
#X connect 8 0 4 0;
#X connect 11 0 12 0;
#X connect 12 0 6 0;
#X connect 14 0 15 0;
#X connect 15 0 2 0;
#X connect 16 0 15 1;
