#N canvas 841 43 964 460 12;
#X text 64 64 W;
#X text 300 64 X;
#X text 549 64 Y;
#X text 802 64 Z;
#X obj 83 148 *~ 1;
#X text 61 121 W;
#X text 802 119 X;
#X text 300 119 Y;
#X text 549 119 Z;
#X text 885 64 FuMa;
#X text 879 147 ACN;
#X obj 300 146 *~ 1;
#X obj 549 146 *~ 1;
#X obj 802 146 *~ 1;
#X obj 83 93 inlet~;
#X obj 300 91 inlet~;
#X obj 549 91 inlet~;
#X obj 802 91 inlet~;
#X obj 41 367 outlet~;
#X obj 296 367 outlet~;
#X obj 488 360 outlet~;
#X obj 766 370 outlet~;
#X text 41 395 FL;
#X text 296 395 BL;
#X text 542 395 BR;
#X text 801 395 FR;
#X obj 9 281 *~ 0.25;
#X obj 9 306 *~ 0.1768;
#X obj 9 331 *~ 0.1768;
#X obj 244 281 *~ 0.25;
#X obj 244 306 *~ 0.1768;
#X obj 244 331 *~ -0.1768;
#X obj 470 281 *~ 0.25;
#X obj 470 307 *~ -0.1768;
#X obj 471 331 *~ -0.1768;
#X obj 798 289 *~ 0.25;
#X obj 798 316 *~ -0.1768;
#X obj 801 338 *~ 0.1768;
#X text 27 -1 quad decoder "in phase" blue ripple sound;
#X connect 4 0 26 0;
#X connect 4 0 29 0;
#X connect 4 0 32 0;
#X connect 4 0 35 0;
#X connect 11 0 27 0;
#X connect 11 0 30 0;
#X connect 11 0 34 0;
#X connect 11 0 36 0;
#X connect 13 0 28 0;
#X connect 13 0 31 0;
#X connect 13 0 33 0;
#X connect 13 0 37 0;
#X connect 14 0 4 0;
#X connect 15 0 13 0;
#X connect 16 0 11 0;
#X connect 17 0 12 0;
#X connect 26 0 18 0;
#X connect 27 0 18 0;
#X connect 28 0 18 0;
#X connect 29 0 19 0;
#X connect 30 0 19 0;
#X connect 31 0 19 0;
#X connect 32 0 20 0;
#X connect 33 0 20 0;
#X connect 34 0 20 0;
#X connect 35 0 21 0;
#X connect 36 0 21 0;
#X connect 37 0 21 0;
