#N canvas 1020 56 774 1036 12;
#X msg 401 4 \; pd dsp 1;
#X msg 401 42 \; pd dsp 0;
#X obj 132 525 foaAmbiPan~, f 23;
#X floatatom 209 289 5 0 0 0 - - -;
#X floatatom 317 491 5 0 0 0 - - -;
#X text 365 490 set elevation between -180 and 180;
#X obj 212 262 hsl 128 15 180 -180 0 0 empty empty azimuth -2 -8 0
10 -262144 -1 -1 6350 1;
#X text 257 289 set azimuth between 180 and -180;
#X obj 317 347 vsl 15 128 -180 180 0 0 empty empty elevation 0 -9 0
10 -262144 -1 -1 3900 1;
#X text 8 4 test pd patch for my own first order ambisonic panning
external;
#X obj 209 192 loadbang;
#X msg 209 219 0;
#X obj 129 146 *~;
#X obj 147 118 tgl 15 0 empty empty empty 17 7 0 10 -262144 -1 -1 0
1;
#X obj 321 898 dac~ 1 2;
#X obj 315 722 meter;
#X obj 418 722 meter;
#X obj 526 721 meter;
#X obj 632 720 meter;
#X text 548 653 W X Y Z;
#X text 350 864 meter from millers mus 170 acoustics library;
#X obj 129 86 noise~;
#X msg 337 236 180;
#X msg 373 236 90;
#X msg 405 236 0;
#X msg 440 236 -90;
#X msg 477 236 -180;
#X msg 383 325 180;
#X msg 419 325 90;
#X msg 451 325 0;
#X msg 486 325 -90;
#X msg 523 325 -180;
#X text 353 263 positive numbers increase counterclockwise;
#X msg 395 208 45;
#X msg 430 208 -45;
#X text 606 653 FuMa;
#X obj 122 590 quad-decoder, f 26;
#X obj 33 689 meter;
#X obj 32 830 meter;
#X obj 148 832 meter;
#X obj 146 689 meter;
#X text 167 667 FR;
#X text 49 668 FL;
#X text 182 817 BR;
#X text 51 815 BL;
#X text 480 4 created a decoder to test and it is working correctly
, f 18;
#X text 345 363 W = omni X = front to back Y = left to right Z = up
to down, f 9;
#X text 367 505 negative elev. is below;
#X connect 2 0 15 0;
#X connect 2 0 36 0;
#X connect 2 1 16 0;
#X connect 2 1 36 1;
#X connect 2 2 17 0;
#X connect 2 2 36 2;
#X connect 2 3 18 0;
#X connect 2 3 36 3;
#X connect 3 0 2 1;
#X connect 4 0 2 2;
#X connect 6 0 3 0;
#X connect 8 0 4 0;
#X connect 10 0 11 0;
#X connect 11 0 6 0;
#X connect 12 0 2 0;
#X connect 13 0 12 1;
#X connect 21 0 12 0;
#X connect 22 0 6 0;
#X connect 23 0 6 0;
#X connect 24 0 6 0;
#X connect 25 0 6 0;
#X connect 26 0 6 0;
#X connect 27 0 8 0;
#X connect 28 0 8 0;
#X connect 29 0 8 0;
#X connect 30 0 8 0;
#X connect 31 0 8 0;
#X connect 33 0 6 0;
#X connect 34 0 6 0;
#X connect 36 0 37 0;
#X connect 36 1 38 0;
#X connect 36 2 39 0;
#X connect 36 3 40 0;
