#N canvas 24 36 1279 797 12;
#X obj 671 433 quadpan~ 0.5 0.5 0.5 0.5;
#X floatatom 738 218 5 0 0 0 - - -;
#X obj 782 252 - 1;
#X floatatom 782 306 5 0 0 0 - - -;
#X obj 782 279 * -1;
#X floatatom 736 305 5 0 0 0 - - -;
#X obj 736 334 +;
#X floatatom 735 359 5 0 0 0 - - -;
#X floatatom 865 213 5 0 0 0 - - -;
#X obj 909 269 - 1;
#X floatatom 908 325 5 0 0 0 - - -;
#X obj 909 296 * -1;
#X floatatom 868 324 5 0 0 0 - - -;
#X obj 868 358 +;
#X floatatom 870 393 5 0 0 0 - - -;
#X obj 674 474 dac~ 1 2;
#X text 774 461 test front to back in stereo system;
#X msg 737 193 1;
#X obj 736 160 loadbang;
#X text 904 212 move this value between 0 and 1;
#X obj 107 490 quadpan~ 0.5 0.5 0.5 0.5;
#X floatatom 150 313 5 0 0 0 - - -;
#X obj 194 337 - 1;
#X floatatom 194 391 5 0 0 0 - - -;
#X obj 194 364 * -1;
#X floatatom 148 390 5 0 0 0 - - -;
#X obj 157 422 +;
#X floatatom 156 448 5 0 0 0 - - -;
#X floatatom 316 303 5 0 0 0 - - -;
#X obj 356 335 - 1;
#X floatatom 355 391 5 0 0 0 - - -;
#X obj 356 362 * -1;
#X floatatom 315 390 5 0 0 0 - - -;
#X obj 320 425 +;
#X floatatom 319 448 5 0 0 0 - - -;
#X obj 107 544 dac~ 1 2;
#X text 175 516 test left to right in stereo system;
#X msg 316 273 1;
#X obj 315 242 loadbang;
#X text 58 243 move this value between 0 and 1;
#X text 100 577 playing out of speakers Front Left and Front Right
;
#X text 620 140 pan all the way to the left;
#X obj 153 287 hsl 128 15 1 0 0 0 empty empty empty -2 -8 0 10 -262144
-1 -1 0 1;
#X text 348 274 pan all the way to the front;
#X obj 588 281 sinusoid;
#A saved 500;
#X text 4 36 plug one of the sinusoid objects to one of the quadpan
units to test left test = LEFT/RIGHT right test = FRONT/BACK;
#X text 6 92 only have 2 channels this is a stereo test of a quad panner
;
#X msg 1141 621 \; pd dsp 1;
#X msg 1141 659 \; pd dsp 0;
#X obj 587 355 switch;
#A saved 0;
#X text 590 260 switch me on;
#X obj 17 341 sinusoid;
#A saved 500;
#X obj 17 415 switch;
#A saved 0;
#X text 19 320 switch me on;
#X text 13 682 dependendies: msp's acoustics abstraction library;
#X text 1022 4 to do: fix zipper effect?;
#X obj 864 72 vsl 15 128 0 1 0 0 empty empty empty 0 -9 0 10 -262144
-1 -1 0 1;
#X text 4 -2 [quadpan~ sigIN gainFL gainFR gainBL gainBR];
#X text 886 180 back;
#X text 888 71 front;
#X text 891 237 slider goes from back to front;
#X text 102 600 normal left right panning;
#X text 105 262 left to right;
#X text 671 529 since output 2 is hooked to a back left speaker when
slider is at 0 we hear channel 2 \, when slider is at 1 (front) we
hear it out of Front Left;
#X text 671 584 this is the best way to test the quad panner without
4 speakers;
#X text 889 125 back: right ear/front: left ear;
#X text 673 506 playing out of speakers: Front Left and Back Left;
#X connect 0 0 15 0;
#X connect 0 2 15 1;
#X connect 1 0 2 0;
#X connect 1 0 5 0;
#X connect 2 0 4 0;
#X connect 3 0 6 1;
#X connect 3 0 0 2;
#X connect 4 0 3 0;
#X connect 5 0 6 0;
#X connect 5 0 0 1;
#X connect 6 0 7 0;
#X connect 8 0 9 0;
#X connect 8 0 12 0;
#X connect 9 0 11 0;
#X connect 10 0 13 1;
#X connect 10 0 0 4;
#X connect 11 0 10 0;
#X connect 12 0 13 0;
#X connect 12 0 0 3;
#X connect 13 0 14 0;
#X connect 17 0 1 0;
#X connect 18 0 17 0;
#X connect 20 0 35 0;
#X connect 20 1 35 1;
#X connect 21 0 22 0;
#X connect 21 0 25 0;
#X connect 22 0 24 0;
#X connect 23 0 26 1;
#X connect 23 0 20 2;
#X connect 24 0 23 0;
#X connect 25 0 26 0;
#X connect 25 0 20 1;
#X connect 26 0 27 0;
#X connect 28 0 29 0;
#X connect 28 0 32 0;
#X connect 29 0 31 0;
#X connect 30 0 33 1;
#X connect 30 0 20 4;
#X connect 31 0 30 0;
#X connect 32 0 33 0;
#X connect 32 0 20 3;
#X connect 33 0 34 0;
#X connect 37 0 28 0;
#X connect 38 0 37 0;
#X connect 42 0 21 0;
#X connect 44 0 49 0;
#X connect 49 0 0 0;
#X connect 51 0 52 0;
#X connect 52 0 20 0;
#X connect 56 0 8 0;
